<!DOCTYPE svg PUBLIC "-//W3C//DTD SVG 1.1//EN" "http://www.w3.org/Graphics/SVG/1.1/DTD/svg11.dtd">

<!-- Uploaded to: SVG Repo, www.svgrepo.com, Transformed by: SVG Repo Mixer Tools -->
<svg height="800px" width="800px" version="1.1" id="Layer_1" xmlns="http://www.w3.org/2000/svg" xmlns:xlink="http://www.w3.org/1999/xlink" viewBox="-51.2 -51.2 614.40 614.40" xml:space="preserve" fill="#FFFFFF" stroke="#FFFFFF" stroke-width="8.192">

<g id="SVGRepo_bgCarrier" stroke-width="0">

<rect x="-51.2" y="-51.2" width="614.40" height="614.40" rx="92.16" fill="#10A37F" strokewidth="0"/>

</g>

<g id="SVGRepo_iconCarrier"> <g> <path style="fill:#FFFFFF;" d="M445.609,95.472C488.43,138.28,512,195.298,512,256.002s-23.57,117.722-66.391,160.53 c-2.229,2.229-5.142,3.344-8.055,3.344c-2.926,0-5.839-1.115-8.068-3.344c-4.445-4.445-4.445-11.665,0-16.11 c38.515-38.515,59.716-89.808,59.716-144.42s-21.201-105.906-59.716-144.42c-4.445-4.445-4.445-11.665,0-16.11 C433.945,91.013,441.164,91.013,445.609,95.472z"/> <path style="fill:#FFFFFF;" d="M383.018,158.063c26.115,26.128,40.503,60.907,40.503,97.939s-14.388,71.811-40.516,97.939 c-2.216,2.229-5.142,3.331-8.055,3.331s-5.839-1.102-8.055-3.331c-4.458-4.458-4.458-11.665,0-16.123 c21.809-21.809,33.829-50.876,33.829-81.817s-12.019-60.007-33.829-81.817c-4.458-4.458-4.458-11.665,0-16.123 C371.341,153.617,378.56,153.617,383.018,158.063z"/> <path style="fill:#FFFFFF;" d="M316.337,98.993v314.019c0,11.791-6.459,22.582-16.857,28.142 c-4.737,2.533-9.904,3.787-15.072,3.787c-6.181,0-12.348-1.798-17.706-5.37l-137.189-91.467H77.498 c-13.336,0-24.304-10.297-25.394-23.354h-7.346C20.074,324.748,0,304.674,0,279.99v-47.975c0-24.684,20.074-44.759,44.759-44.759 h7.346c1.089-13.058,12.057-23.354,25.394-23.354h52.016l137.189-91.467c9.815-6.548,22.379-7.156,32.777-1.583 C309.877,76.411,316.337,87.201,316.337,98.993z M291.006,413.011V98.993c0-3.572-2.432-5.256-3.483-5.813s-3.8-1.646-6.763,0.329 l-134.757,89.834v145.32l134.757,89.834c2.964,1.976,5.712,0.887,6.763,0.329C288.575,418.267,291.006,416.583,291.006,413.011z M120.673,322.772V189.231H77.498c-0.101,0-0.177,0.076-0.177,0.165v133.212c0,0.089,0.076,0.165,0.177,0.165L120.673,322.772 L120.673,322.772z M51.99,299.418v-86.832h-7.232c-10.715,0-19.428,8.714-19.428,19.428v47.975 c0,10.715,8.714,19.428,19.428,19.428H51.99z"/> </g> <path style="fill:#10A37F;" d="M291.006,98.993v314.019c0,3.572-2.432,5.256-3.483,5.813c-1.051,0.557-3.8,1.646-6.763-0.329 l-134.757-89.834v-145.32L280.76,93.509c2.964-1.976,5.712-0.887,6.763-0.329S291.006,95.421,291.006,98.993z"/> <path style="fill:#10A37F;" d="M120.673,189.231v133.541H77.498c-0.101,0-0.177-0.076-0.177-0.165V189.396 c0-0.089,0.076-0.165,0.177-0.165L120.673,189.231L120.673,189.231z"/> <path style="fill:#FFFFFFFFFFF;" d="M51.99,212.586v86.832h-7.232c-10.715,0-19.428-8.714-19.428-19.428v-47.975 c0-10.715,8.714-19.428,19.428-19.428H51.99z"/> </g>

</svg>